<svg width="29" height="37" viewBox="0 0 29 37" fill="none" xmlns="http://www.w3.org/2000/svg">
<circle cx="24.0952" cy="5.3" r="4.8" fill="#001515"/>
<path d="M24.0803 7.60505C23.7347 7.60505 23.4275 7.51545 23.1587 7.33625C22.8899 7.15278 22.6787 6.89252 22.5251 6.55545C22.3715 6.21412 22.2947 5.80452 22.2947 5.32665C22.2947 4.84878 22.3715 4.44132 22.5251 4.10425C22.6787 3.76292 22.8899 3.50265 23.1587 3.32345C23.4275 3.13998 23.7347 3.04825 24.0803 3.04825C24.4259 3.04825 24.7331 3.13998 25.0019 3.32345C25.2707 3.50265 25.4819 3.76292 25.6355 4.10425C25.7934 4.44132 25.8723 4.84878 25.8723 5.32665C25.8723 5.80452 25.7934 6.21412 25.6355 6.55545C25.4819 6.89252 25.2707 7.15278 25.0019 7.33625C24.7331 7.51545 24.4259 7.60505 24.0803 7.60505ZM24.0803 7.18265C24.3448 7.18265 24.5752 7.11225 24.7715 6.97145C24.9678 6.82638 25.1214 6.61732 25.2323 6.34425C25.3432 6.06692 25.3987 5.72772 25.3987 5.32665C25.3987 4.92558 25.3432 4.58852 25.2323 4.31545C25.1214 4.03812 24.9678 3.82905 24.7715 3.68825C24.5752 3.54318 24.3448 3.47065 24.0803 3.47065C23.8243 3.47065 23.596 3.54318 23.3955 3.68825C23.195 3.82905 23.0392 4.03812 22.9283 4.31545C22.8174 4.58852 22.7619 4.92558 22.7619 5.32665C22.7619 5.72772 22.8174 6.06692 22.9283 6.34425C23.0392 6.61732 23.195 6.82638 23.3955 6.97145C23.596 7.11225 23.8243 7.18265 24.0803 7.18265Z" fill="#EEFFFF"/>
<path d="M3.69519 11.3H4.01721C4.58574 11.3 4.87051 11.3 5.10239 11.4026C5.30684 11.4931 5.48164 11.6387 5.60769 11.8233C5.75042 12.0324 5.80196 12.3115 5.90484 12.8688L8.49524 26.9001L21.0014 26.9C21.5452 26.9 21.818 26.9 22.0432 26.804C22.2422 26.7191 22.4138 26.5816 22.5413 26.4068C22.6854 26.2091 22.7465 25.9445 22.8685 25.4158L22.8694 25.412L24.7525 17.252L24.7529 17.2503C24.938 16.4482 25.0307 16.0462 24.9289 15.7309C24.8395 15.4542 24.6514 15.2197 24.4019 15.0704C24.1173 14.9 23.7061 14.9 22.8817 14.9H6.69519M21.6952 32.9C21.0325 32.9 20.4952 32.3628 20.4952 31.7C20.4952 31.0373 21.0325 30.5 21.6952 30.5C22.3579 30.5 22.8952 31.0373 22.8952 31.7C22.8952 32.3628 22.3579 32.9 21.6952 32.9ZM9.69519 32.9C9.03245 32.9 8.49519 32.3628 8.49519 31.7C8.49519 31.0373 9.03245 30.5 9.69519 30.5C10.3579 30.5 10.8952 31.0373 10.8952 31.7C10.8952 32.3628 10.3579 32.9 9.69519 32.9Z" stroke="#001414" stroke-width="2.4" stroke-linecap="round" stroke-linejoin="round"/>
</svg>
