<svg width="16" height="16" viewBox="0 0 16 16" fill="none" xmlns="http://www.w3.org/2000/svg">
<path d="M2 7.33325V10.5334C2 11.2801 2 11.6533 2.14532 11.9385C2.27316 12.1894 2.47698 12.3936 2.72786 12.5214C3.0128 12.6666 3.386 12.6666 4.13127 12.6666H11.8687C12.614 12.6666 12.9867 12.6666 13.2716 12.5214C13.5225 12.3936 13.727 12.1894 13.8548 11.9385C14 11.6536 14 11.2809 14 10.5356V7.33325M2 7.33325V5.99992M2 7.33325H14M2 5.99992V5.46672C2 4.71998 2 4.34633 2.14532 4.06112C2.27316 3.81023 2.47698 3.60641 2.72786 3.47858C3.01308 3.33325 3.38673 3.33325 4.13346 3.33325H11.8668C12.6135 3.33325 12.9864 3.33325 13.2716 3.47858C13.5225 3.60641 13.727 3.81023 13.8548 4.06112C14 4.34605 14 4.71925 14 5.46453V5.99992M2 5.99992H14M4.66667 9.99992H7.33333M14 7.33325V5.99992" stroke="#003232" stroke-width="1.33333" stroke-linecap="round" stroke-linejoin="round"/>
</svg>
