<svg width="17" height="17" viewBox="0 0 17 17" fill="none" xmlns="http://www.w3.org/2000/svg">
<path d="M5.15407 4.84619H4.46176C4.09454 4.84619 3.74236 4.99207 3.48269 5.25174C3.22303 5.5114 3.07715 5.86358 3.07715 6.23081V12.4616C3.07715 12.8288 3.22303 13.181 3.48269 13.4406C3.74236 13.7003 4.09454 13.8462 4.46176 13.8462H10.6925C11.0598 13.8462 11.4119 13.7003 11.6716 13.4406C11.9313 13.181 12.0771 12.8288 12.0771 12.4616V11.7693" stroke="#E0E7E7" stroke-width="1.03846" stroke-linecap="round" stroke-linejoin="round"/>
<path d="M11.3847 3.46159L13.4617 5.53852M14.4205 4.5589C14.6932 4.28624 14.8463 3.91643 14.8463 3.53082C14.8463 3.14522 14.6932 2.77541 14.4205 2.50275C14.1478 2.23008 13.778 2.0769 13.3924 2.0769C13.0068 2.0769 12.637 2.23008 12.3643 2.50275L6.53857 8.30775V10.3847H8.6155L14.4205 4.5589Z" stroke="#E0E7E7" stroke-width="1.03846" stroke-linecap="round" stroke-linejoin="round"/>
</svg>
