<svg width="28" height="20" viewBox="0 0 28 20" fill="none" xmlns="http://www.w3.org/2000/svg">
<path d="M17.3357 3.11608L14.6664 2.64675L14.897 1.33341L17.6544 1.81808C17.8604 1.4675 18.1544 1.17683 18.5073 0.974883C18.8602 0.772933 19.2598 0.666712 19.6664 0.666748H22.2564C22.483 0.666748 22.6664 0.850081 22.6664 1.07675V4.92341C22.6664 5.15008 22.4824 5.33341 22.2564 5.33341H19.6664C19.0676 5.33347 18.4917 5.10332 18.0579 4.69059C17.624 4.27785 17.3655 3.71413 17.3357 3.11608Z" fill="#003636"/>
<path fill-rule="evenodd" clip-rule="evenodd" d="M18.5364 6.37549L17.9164 11.3335H13.333V10.4802C13.333 10.2148 13.081 10.0002 12.7704 10.0002H7.39038C3.67705 10.0002 0.666382 12.5668 0.666382 15.7335C0.666382 15.8802 0.806382 16.0002 0.979715 16.0002H4.01438C4.09621 16.9122 4.51636 17.7607 5.1922 18.3786C5.86804 18.9965 6.75064 19.3392 7.66638 19.3392C8.58213 19.3392 9.46472 18.9965 10.1406 18.3786C10.8164 17.7607 11.2366 16.9122 11.3184 16.0002H11.925C11.9504 16.0002 11.9753 15.9997 11.9997 15.9988V16.0002H18.9104C19.045 16.4535 19.4324 16.7435 19.8557 16.8335C20.1384 17.6809 20.7208 18.3959 21.4934 18.8444C22.2661 19.2928 23.1758 19.4437 24.0518 19.2688C24.9279 19.0939 25.7099 18.6051 26.2511 17.8944C26.7923 17.1837 27.0554 16.2998 26.991 15.4088C27.2877 15.0995 27.437 14.6455 27.2544 14.1542C27.0447 13.591 26.7203 13.0776 26.3015 12.6465C25.8828 12.2155 25.3791 11.8762 24.8222 11.6504C24.2653 11.4245 23.6676 11.3169 23.0669 11.3344C22.4662 11.3519 21.8758 11.4942 21.333 11.7522V6.66682H19.6664C19.2711 6.66699 18.8823 6.56674 18.5364 6.37549ZM9.29972 16.0002H6.03305C6.10955 16.3769 6.31396 16.7156 6.61163 16.9589C6.9093 17.2023 7.28193 17.3352 7.66638 17.3352C8.05083 17.3352 8.42346 17.2023 8.72113 16.9589C9.01881 16.7156 9.22321 16.3769 9.29972 16.0002ZM21.9291 16.5655C22.1065 16.8425 22.362 17.0608 22.6633 17.1929C22.9646 17.3251 23.2983 17.3651 23.6223 17.308C23.9463 17.2509 24.2461 17.0993 24.4841 16.8721C24.7221 16.645 24.8876 16.3525 24.9597 16.0315L21.9291 16.5655Z" fill="#003636"/>
<path d="M4.11309 7.33333C4.12604 7.29694 4.14005 7.26092 4.15509 7.22533L4.11309 7.33333ZM4.11309 7.33333C4.03976 7.542 3.99976 7.76667 3.99976 8V8.66667H13.9998V8C13.9989 7.77467 13.9638 7.56089 13.8944 7.35867L13.8864 7.33333C13.7485 6.94323 13.493 6.60551 13.1551 6.3667C12.8172 6.1279 12.4135 5.99978 11.9998 6H5.99976C5.60657 5.99991 5.22208 6.11571 4.89434 6.33294C4.56661 6.55016 4.31017 6.85917 4.15709 7.22133" fill="#003636"/>
</svg>
