<svg width="255" height="36" viewBox="0 0 255 36" fill="none" xmlns="http://www.w3.org/2000/svg">
<path d="M7.64416 29.1185C6.28125 29.1185 5.23438 28.7432 4.50354 27.9926C3.79245 27.242 3.43691 26.2149 3.43691 24.9113V10.1562H4.91834V24.7631C4.91834 25.7507 5.16524 26.5112 5.65905 27.0445C6.15286 27.5778 6.86394 27.8445 7.79231 27.8445C8.76017 27.8445 9.56014 27.5581 10.1922 26.9853L10.8144 28.0223C10.4194 28.3976 9.93544 28.6741 9.36262 28.8519C8.80955 29.0296 8.23673 29.1185 7.64416 29.1185ZM0.592571 14.8079V13.5339H9.83668V14.8079H0.592571ZM22.3991 13.4154C23.6632 13.4154 24.7595 13.6623 25.6879 14.1561C26.636 14.6302 27.3668 15.361 27.8804 16.3486C28.4137 17.3165 28.6803 18.5214 28.6803 19.9633V29H27.1989V20.0818C27.1989 18.3436 26.7545 17.0202 25.8656 16.1116C24.9965 15.203 23.7719 14.7487 22.1917 14.7487C20.9868 14.7487 19.9399 14.9956 19.0511 15.4894C18.1622 15.9832 17.4807 16.6745 17.0067 17.5634C16.5524 18.4522 16.3252 19.5189 16.3252 20.7633V29H14.8438V7.01562H16.3252V17.83L16.0586 17.356C16.5326 16.1313 17.3129 15.1733 18.3992 14.482C19.4856 13.7709 20.8189 13.4154 22.3991 13.4154ZM40.9587 29.1185C39.3983 29.1185 38.0156 28.7827 36.8107 28.1111C35.6256 27.4396 34.6873 26.5112 33.996 25.3261C33.3244 24.1409 32.9886 22.7879 32.9886 21.267C32.9886 19.7263 33.3047 18.3732 33.9368 17.2078C34.5886 16.0227 35.4774 15.0943 36.6033 14.4228C37.7292 13.7512 38.9934 13.4154 40.3958 13.4154C41.7982 13.4154 43.0525 13.7413 44.1586 14.3931C45.2845 15.045 46.1635 15.9634 46.7955 17.1486C47.4474 18.314 47.7733 19.667 47.7733 21.2077C47.7733 21.267 47.7634 21.3361 47.7437 21.4151C47.7437 21.4744 47.7437 21.5435 47.7437 21.6225H34.0849V20.467H46.9437L46.3511 21.0299C46.3709 19.825 46.1141 18.7485 45.5808 17.8004C45.0672 16.8325 44.366 16.082 43.4771 15.5486C42.5883 14.9956 41.5612 14.719 40.3958 14.719C39.2501 14.719 38.223 14.9956 37.3144 15.5486C36.4256 16.082 35.7243 16.8325 35.2108 17.8004C34.6972 18.7485 34.4404 19.8349 34.4404 21.0596V21.3262C34.4404 22.5904 34.717 23.7162 35.27 24.7039C35.8429 25.6717 36.6231 26.4322 37.6107 26.9853C38.5983 27.5186 39.7242 27.7852 40.9884 27.7852C41.976 27.7852 42.8945 27.6075 43.7438 27.2519C44.6129 26.8964 45.3437 26.3532 45.9363 25.6223L46.7955 26.6001C46.124 27.4297 45.2746 28.0618 44.2475 28.4963C43.2401 28.9111 42.1439 29.1185 40.9587 29.1185ZM56.7578 29.1185C55.3949 29.1185 54.348 28.7432 53.6172 27.9926C52.9061 27.242 52.5506 26.2149 52.5506 24.9113V10.1562H54.032V24.7631C54.032 25.7507 54.2789 26.5112 54.7727 27.0445C55.2665 27.5778 55.9776 27.8445 56.906 27.8445C57.8738 27.8445 58.6738 27.5581 59.3059 26.9853L59.9281 28.0223C59.533 28.3976 59.0491 28.6741 58.4763 28.8519C57.9232 29.0296 57.3504 29.1185 56.7578 29.1185ZM49.7062 14.8079V13.5339H58.9503V14.8079H49.7062ZM69.4519 29.1185C67.9705 29.1185 66.6471 28.7827 65.4817 28.1111C64.3361 27.4396 63.4176 26.5112 62.7263 25.3261C62.0547 24.1409 61.7189 22.7879 61.7189 21.267C61.7189 19.7263 62.0547 18.3732 62.7263 17.2078C63.4176 16.0227 64.3361 15.0943 65.4817 14.4228C66.6471 13.7512 67.9705 13.4154 69.4519 13.4154C70.9334 13.4154 72.2568 13.7512 73.4222 14.4228C74.5875 15.0943 75.506 16.0227 76.1776 17.2078C76.8492 18.3732 77.185 19.7263 77.185 21.267C77.185 22.7879 76.8492 24.1409 76.1776 25.3261C75.506 26.5112 74.5875 27.4396 73.4222 28.1111C72.2568 28.7827 70.9334 29.1185 69.4519 29.1185ZM69.4519 27.7852C70.6371 27.7852 71.7037 27.5186 72.6518 26.9853C73.5999 26.4322 74.3406 25.6619 74.874 24.6742C75.4073 23.6866 75.6739 22.5509 75.6739 21.267C75.6739 19.9633 75.4073 18.8275 74.874 17.8597C74.3406 16.8721 73.5999 16.1116 72.6518 15.5783C71.7037 15.0252 70.6371 14.7487 69.4519 14.7487C68.2668 14.7487 67.2002 15.0252 66.2521 15.5783C65.3237 16.1116 64.583 16.8721 64.0299 17.8597C63.4966 18.8275 63.2299 19.9633 63.2299 21.267C63.2299 22.5509 63.4966 23.6866 64.0299 24.6742C64.583 25.6619 65.3237 26.4322 66.2521 26.9853C67.2002 27.5186 68.2668 27.7852 69.4519 27.7852ZM86.1825 29.1185C84.8196 29.1185 83.7727 28.7432 83.0419 27.9926C82.3308 27.242 81.9752 26.2149 81.9752 24.9113V10.1562H83.4567V24.7631C83.4567 25.7507 83.7036 26.5112 84.1974 27.0445C84.6912 27.5778 85.4023 27.8445 86.3306 27.8445C87.2985 27.8445 88.0985 27.5581 88.7305 26.9853L89.3527 28.0223C88.9577 28.3976 88.4738 28.6741 87.9009 28.8519C87.3479 29.0296 86.775 29.1185 86.1825 29.1185ZM79.1309 14.8079V13.5339H88.375V14.8079H79.1309ZM99.1136 29.1185C97.5532 29.1185 96.1705 28.7827 94.9656 28.1111C93.7805 27.4396 92.8422 26.5112 92.1509 25.3261C91.4793 24.1409 91.1435 22.7879 91.1435 21.267C91.1435 19.7263 91.4596 18.3732 92.0917 17.2078C92.7435 16.0227 93.6323 15.0943 94.7582 14.4228C95.8841 13.7512 97.1483 13.4154 98.5507 13.4154C99.9531 13.4154 101.207 13.7413 102.314 14.3931C103.439 15.045 104.318 15.9634 104.95 17.1486C105.602 18.314 105.928 19.667 105.928 21.2077C105.928 21.267 105.918 21.3361 105.899 21.4151C105.899 21.4744 105.899 21.5435 105.899 21.6225H92.2398V20.467H105.099L104.506 21.0299C104.526 19.825 104.269 18.7485 103.736 17.8004C103.222 16.8325 102.521 16.082 101.632 15.5486C100.743 14.9956 99.7161 14.719 98.5507 14.719C97.405 14.719 96.3779 14.9956 95.4693 15.5486C94.5805 16.082 93.8792 16.8325 93.3657 17.8004C92.8521 18.7485 92.5953 19.8349 92.5953 21.0596V21.3262C92.5953 22.5904 92.8719 23.7162 93.4249 24.7039C93.9978 25.6717 94.778 26.4322 95.7656 26.9853C96.7532 27.5186 97.8791 27.7852 99.1432 27.7852C100.131 27.7852 101.049 27.6075 101.899 27.2519C102.768 26.8964 103.499 26.3532 104.091 25.6223L104.95 26.6001C104.279 27.4297 103.43 28.0618 102.402 28.4963C101.395 28.9111 100.299 29.1185 99.1136 29.1185ZM118.172 29.1185C116.809 29.1185 115.574 28.8025 114.468 28.1704C113.382 27.5383 112.513 26.6297 111.861 25.4446C111.229 24.2594 110.913 22.8669 110.913 21.267C110.913 19.6275 111.229 18.2251 111.861 17.0597C112.513 15.8943 113.382 14.9956 114.468 14.3635C115.574 13.7314 116.809 13.4154 118.172 13.4154C119.634 13.4154 120.937 13.7512 122.083 14.4228C123.248 15.0746 124.157 15.9931 124.809 17.1782C125.48 18.3436 125.816 19.7065 125.816 21.267C125.816 22.8076 125.48 24.1705 124.809 25.3557C124.157 26.5408 123.248 27.4692 122.083 28.1408C120.937 28.7926 119.634 29.1185 118.172 29.1185ZM110.409 29V7.01562H111.891V18.5411L111.594 21.2373L111.831 23.9335V29H110.409ZM118.083 27.7852C119.268 27.7852 120.335 27.5186 121.283 26.9853C122.231 26.4322 122.972 25.6619 123.505 24.6742C124.058 23.6866 124.335 22.5509 124.335 21.267C124.335 19.9633 124.058 18.8275 123.505 17.8597C122.972 16.8721 122.231 16.1116 121.283 15.5783C120.335 15.0252 119.268 14.7487 118.083 14.7487C116.898 14.7487 115.831 15.0252 114.883 15.5783C113.955 16.1116 113.214 16.8721 112.661 17.8597C112.128 18.8275 111.861 19.9633 111.861 21.267C111.861 22.5509 112.128 23.6866 112.661 24.6742C113.214 25.6619 113.955 26.4322 114.883 26.9853C115.831 27.5186 116.898 27.7852 118.083 27.7852ZM139.991 29V25.4742L139.931 24.9409V19.1337C139.931 17.6918 139.536 16.5955 138.746 15.8449C137.976 15.0943 136.84 14.719 135.339 14.719C134.272 14.719 133.275 14.9067 132.346 15.282C131.438 15.6375 130.658 16.1017 130.006 16.6745L129.265 15.6079C130.035 14.9166 130.964 14.3833 132.05 14.008C133.137 13.6129 134.272 13.4154 135.457 13.4154C137.373 13.4154 138.845 13.8993 139.872 14.8672C140.899 15.8351 141.413 17.277 141.413 19.193V29H139.991ZM134.42 29.1185C133.275 29.1185 132.277 28.9407 131.428 28.5852C130.598 28.2099 129.956 27.6865 129.502 27.0149C129.068 26.3433 128.85 25.573 128.85 24.7039C128.85 23.9138 129.028 23.2027 129.384 22.5706C129.759 21.9188 130.371 21.3953 131.221 21.0003C132.07 20.5855 133.206 20.3781 134.628 20.3781H140.317V21.5336H134.657C133.058 21.5336 131.932 21.8299 131.28 22.4225C130.648 23.015 130.332 23.7557 130.332 24.6446C130.332 25.6322 130.707 26.4223 131.458 27.0149C132.208 27.6075 133.265 27.9037 134.628 27.9037C135.932 27.9037 137.028 27.6075 137.917 27.0149C138.825 26.4223 139.497 25.5631 139.931 24.4372L140.346 25.4446C139.931 26.5705 139.22 27.4692 138.213 28.1408C137.225 28.7926 135.961 29.1185 134.42 29.1185ZM153.844 34.8665C152.442 34.8665 151.108 34.6492 149.844 34.2146C148.58 33.7801 147.553 33.1776 146.763 32.4073L147.563 31.2814C148.333 31.9925 149.252 32.5455 150.318 32.9406C151.405 33.3356 152.57 33.5332 153.814 33.5332C155.888 33.5332 157.409 33.0492 158.377 32.0814C159.365 31.1135 159.859 29.5926 159.859 27.5186V23.2224L160.155 20.9114L159.918 18.6004V13.5339H161.34V27.3408C161.34 29.9284 160.708 31.8246 159.444 33.0295C158.199 34.2541 156.333 34.8665 153.844 34.8665ZM153.429 28.4371C151.967 28.4371 150.654 28.121 149.489 27.4889C148.343 26.8371 147.424 25.9483 146.733 24.8224C146.062 23.6767 145.726 22.3731 145.726 20.9114C145.726 19.43 146.062 18.1263 146.733 17.0004C147.424 15.8746 148.343 14.9956 149.489 14.3635C150.654 13.7314 151.967 13.4154 153.429 13.4154C154.832 13.4154 156.086 13.7215 157.192 14.3339C158.318 14.9264 159.207 15.7857 159.859 16.9116C160.51 18.0177 160.836 19.351 160.836 20.9114C160.836 22.4521 160.51 23.7854 159.859 24.9113C159.207 26.0371 158.318 26.9062 157.192 27.5186C156.086 28.1309 154.832 28.4371 153.429 28.4371ZM153.548 27.1038C154.792 27.1038 155.888 26.847 156.836 26.3334C157.785 25.8001 158.525 25.0693 159.059 24.1409C159.612 23.1928 159.888 22.1163 159.888 20.9114C159.888 19.6868 159.612 18.6103 159.059 17.6819C158.525 16.7535 157.785 16.0326 156.836 15.519C155.888 15.0055 154.792 14.7487 153.548 14.7487C152.343 14.7487 151.256 15.0055 150.289 15.519C149.34 16.0326 148.59 16.7535 148.037 17.6819C147.503 18.6103 147.237 19.6868 147.237 20.9114C147.237 22.1163 147.503 23.1928 148.037 24.1409C148.59 25.0693 149.34 25.8001 150.289 26.3334C151.256 26.847 152.343 27.1038 153.548 27.1038ZM171.42 29.1185C170.136 29.1185 168.931 28.9309 167.805 28.5556C166.699 28.1803 165.84 27.7062 165.227 27.1334L165.909 25.9483C166.501 26.4618 167.291 26.9062 168.279 27.2815C169.267 27.6371 170.333 27.8149 171.479 27.8149C173.099 27.8149 174.264 27.5482 174.975 27.0149C175.686 26.4816 176.042 25.7804 176.042 24.9113C176.042 24.2792 175.854 23.7854 175.479 23.4298C175.123 23.0545 174.639 22.7681 174.027 22.5706C173.415 22.3731 172.743 22.2151 172.012 22.0966C171.281 21.9583 170.551 21.8101 169.82 21.6521C169.089 21.4941 168.417 21.267 167.805 20.9707C167.193 20.6744 166.699 20.2695 166.324 19.7559C165.968 19.2226 165.79 18.5214 165.79 17.6523C165.79 16.8622 166.007 16.1511 166.442 15.519C166.877 14.8869 167.528 14.3833 168.398 14.008C169.267 13.6129 170.353 13.4154 171.657 13.4154C172.625 13.4154 173.592 13.5537 174.56 13.8302C175.548 14.1067 176.348 14.4721 176.96 14.9264L176.279 16.1116C175.627 15.6178 174.896 15.2622 174.086 15.045C173.276 14.8277 172.457 14.719 171.627 14.719C170.126 14.719 169.02 14.9956 168.309 15.5486C167.617 16.1017 167.272 16.793 167.272 17.6226C167.272 18.2745 167.449 18.7979 167.805 19.193C168.18 19.5682 168.674 19.8645 169.286 20.0818C169.899 20.2793 170.57 20.4472 171.301 20.5855C172.032 20.704 172.763 20.8423 173.494 21.0003C174.224 21.1583 174.896 21.3855 175.508 21.6818C176.121 21.9583 176.605 22.3533 176.96 22.8669C177.335 23.3607 177.523 24.0323 177.523 24.8816C177.523 25.731 177.286 26.4717 176.812 27.1038C176.358 27.7358 175.676 28.2297 174.768 28.5852C173.859 28.9407 172.743 29.1185 171.42 29.1185ZM189.111 13.4154C190.375 13.4154 191.471 13.6623 192.4 14.1561C193.348 14.6302 194.078 15.361 194.592 16.3486C195.125 17.3165 195.392 18.5214 195.392 19.9633V29H193.911V20.0818C193.911 18.3436 193.466 17.0202 192.577 16.1116C191.708 15.203 190.484 14.7487 188.903 14.7487C187.698 14.7487 186.652 14.9956 185.763 15.4894C184.874 15.9832 184.192 16.6745 183.718 17.5634C183.264 18.4522 183.037 19.5189 183.037 20.7633V29H181.555V7.01562H183.037V17.83L182.77 17.356C183.244 16.1313 184.025 15.1733 185.111 14.482C186.197 13.7709 187.531 13.4154 189.111 13.4154ZM207.433 29.1185C205.952 29.1185 204.629 28.7827 203.463 28.1111C202.318 27.4396 201.399 26.5112 200.708 25.3261C200.036 24.1409 199.7 22.7879 199.7 21.267C199.7 19.7263 200.036 18.3732 200.708 17.2078C201.399 16.0227 202.318 15.0943 203.463 14.4228C204.629 13.7512 205.952 13.4154 207.433 13.4154C208.915 13.4154 210.238 13.7512 211.404 14.4228C212.569 15.0943 213.487 16.0227 214.159 17.2078C214.831 18.3732 215.166 19.7263 215.166 21.267C215.166 22.7879 214.831 24.1409 214.159 25.3261C213.487 26.5112 212.569 27.4396 211.404 28.1111C210.238 28.7827 208.915 29.1185 207.433 29.1185ZM207.433 27.7852C208.619 27.7852 209.685 27.5186 210.633 26.9853C211.581 26.4322 212.322 25.6619 212.855 24.6742C213.389 23.6866 213.655 22.5509 213.655 21.267C213.655 19.9633 213.389 18.8275 212.855 17.8597C212.322 16.8721 211.581 16.1116 210.633 15.5783C209.685 15.0252 208.619 14.7487 207.433 14.7487C206.248 14.7487 205.182 15.0252 204.234 15.5783C203.305 16.1116 202.564 16.8721 202.011 17.8597C201.478 18.8275 201.211 19.9633 201.211 21.267C201.211 22.5509 201.478 23.6866 202.011 24.6742C202.564 25.6619 203.305 26.4322 204.234 26.9853C205.182 27.5186 206.248 27.7852 207.433 27.7852ZM227.423 29.1185C226.06 29.1185 224.826 28.8025 223.719 28.1704C222.633 27.5383 221.764 26.6396 221.112 25.4742C220.48 24.2891 220.164 22.8866 220.164 21.267C220.164 19.6473 220.48 18.2547 221.112 17.0893C221.764 15.9042 222.633 14.9956 223.719 14.3635C224.826 13.7314 226.06 13.4154 227.423 13.4154C228.885 13.4154 230.188 13.7512 231.334 14.4228C232.499 15.0746 233.408 15.9931 234.06 17.1782C234.731 18.3634 235.067 19.7263 235.067 21.267C235.067 22.8076 234.731 24.1705 234.06 25.3557C233.408 26.5408 232.499 27.4692 231.334 28.1408C230.188 28.7926 228.885 29.1185 227.423 29.1185ZM219.66 34.7479V13.5339H221.083V18.6004L220.846 21.2966L221.142 23.9928V34.7479H219.66ZM227.334 27.7852C228.519 27.7852 229.586 27.5186 230.534 26.9853C231.482 26.4322 232.223 25.6619 232.756 24.6742C233.309 23.6866 233.586 22.5509 233.586 21.267C233.586 19.9633 233.309 18.8275 232.756 17.8597C232.223 16.8721 231.482 16.1116 230.534 15.5783C229.586 15.0252 228.519 14.7487 227.334 14.7487C226.149 14.7487 225.082 15.0252 224.134 15.5783C223.206 16.1116 222.465 16.8721 221.912 17.8597C221.379 18.8275 221.112 19.9633 221.112 21.267C221.112 22.5509 221.379 23.6866 221.912 24.6742C222.465 25.6619 223.206 26.4322 224.134 26.9853C225.082 27.5186 226.149 27.7852 227.334 27.7852Z" fill="#FAFFFF"/>
<g clip-path="url(#clip0_3_2957)">
<path d="M241.315 6.90388C241.315 8.50602 241.952 10.0425 243.084 11.1754C244.217 12.3083 245.754 12.9448 247.356 12.9448C248.958 12.9448 250.495 12.3083 251.628 11.1754C252.76 10.0425 253.397 8.50602 253.397 6.90388C253.397 5.30173 252.76 3.76521 251.628 2.63232C250.495 1.49943 248.958 0.862985 247.356 0.862985C245.754 0.862985 244.217 1.49943 243.084 2.63232C241.952 3.76521 241.315 5.30173 241.315 6.90388ZM254.26 6.90388C254.26 8.7349 253.533 10.4909 252.238 11.7857C250.943 13.0804 249.187 13.8078 247.356 13.8078C245.525 13.8078 243.769 13.0804 242.474 11.7857C241.18 10.4909 240.452 8.7349 240.452 6.90388C240.452 5.07286 241.18 3.31683 242.474 2.0221C243.769 0.727371 245.525 0 247.356 0C249.187 0 250.943 0.727371 252.238 2.0221C253.533 3.31683 254.26 5.07286 254.26 6.90388ZM245.199 3.45367H247.882C249.358 3.45367 250.248 4.29335 250.248 5.57661C250.248 6.55869 249.672 7.2508 248.958 7.50969L250.376 10.3558H249.065L247.805 7.70128H246.352V10.3558H245.199V3.45367ZM246.351 4.39432V6.79083H247.687C248.546 6.79083 249.045 6.39127 249.045 5.61717C249.045 4.82926 248.531 4.39432 247.718 4.39432H246.351Z" fill="#FAFFFF"/>
</g>
<defs>
<clipPath id="clip0_3_2957">
<rect width="13.8078" height="13.8078" fill="white" transform="translate(240.452)"/>
</clipPath>
</defs>
</svg>
