<svg width="312" height="43" viewBox="0 0 312 43" fill="none" xmlns="http://www.w3.org/2000/svg">
<path d="M9.34287 34.1449C7.67708 34.1449 6.39757 33.6862 5.50432 32.7688C4.63522 31.8514 4.20067 30.596 4.20067 29.0027V10.9687H6.0113V28.8216C6.0113 30.0287 6.31307 30.9581 6.91662 31.61C7.52016 32.2618 8.38927 32.5877 9.52393 32.5877C10.7069 32.5877 11.6846 32.2377 12.4572 31.5375L13.2176 32.805C12.7348 33.2637 12.1433 33.6017 11.4432 33.8189C10.7672 34.0362 10.0671 34.1449 9.34287 34.1449ZM0.724253 16.6541V15.097H12.0226V16.6541H0.724253ZM27.3767 14.9521C28.9217 14.9521 30.2616 15.2539 31.3963 15.8575C32.5551 16.4369 33.4483 17.3301 34.076 18.5372C34.7278 19.7201 35.0537 21.1928 35.0537 22.9551V34H33.2431V23.1C33.2431 20.9755 32.6999 19.358 31.6135 18.2475C30.5513 17.137 29.0545 16.5817 27.1232 16.5817C25.6505 16.5817 24.371 16.8835 23.2846 17.487C22.1982 18.0906 21.3654 18.9355 20.786 20.0219C20.2307 21.1083 19.9531 22.4119 19.9531 23.9329V34H18.1424V7.13021H19.9531V20.3478L19.6271 19.7684C20.2066 18.2716 21.1602 17.1008 22.4879 16.2558C23.8157 15.3867 25.4453 14.9521 27.3767 14.9521ZM50.0607 34.1449C48.1535 34.1449 46.4635 33.7344 44.9909 32.9136C43.5424 32.0928 42.3956 30.9581 41.5507 29.5096C40.7299 28.0611 40.3195 26.4074 40.3195 24.5485C40.3195 22.6654 40.7057 21.0117 41.4783 19.5874C42.2749 18.1389 43.3613 17.0042 44.7374 16.1834C46.1135 15.3626 47.6586 14.9521 49.3726 14.9521C51.0867 14.9521 52.6197 15.3505 53.9716 16.1472C55.3477 16.9438 56.422 18.0664 57.1946 19.5149C57.9912 20.9393 58.3896 22.593 58.3896 24.4761C58.3896 24.5485 58.3775 24.633 58.3534 24.7296C58.3534 24.802 58.3534 24.8865 58.3534 24.983H41.6593V23.5708H57.3756L56.6514 24.2588C56.6755 22.7861 56.3617 21.4704 55.7098 20.3116C55.0822 19.1287 54.2251 18.2113 53.1387 17.5595C52.0524 16.8835 50.797 16.5455 49.3726 16.5455C47.9724 16.5455 46.717 16.8835 45.6065 17.5595C44.5201 18.2113 43.6631 19.1287 43.0354 20.3116C42.4077 21.4704 42.0939 22.7982 42.0939 24.295V24.6209C42.0939 26.166 42.4319 27.5421 43.1078 28.7492C43.8079 29.9321 44.7615 30.8616 45.9686 31.5375C47.1757 32.1894 48.5518 32.5153 50.0969 32.5153C51.304 32.5153 52.4266 32.298 53.4647 31.8635C54.5269 31.4289 55.4201 30.765 56.1444 29.8718L57.1946 31.0668C56.3737 32.0807 55.3356 32.8533 54.0803 33.3844C52.849 33.8914 51.5092 34.1449 50.0607 34.1449ZM69.3707 34.1449C67.7049 34.1449 66.4254 33.6862 65.5321 32.7688C64.663 31.8514 64.2285 30.596 64.2285 29.0027V10.9687H66.0391V28.8216C66.0391 30.0287 66.3409 30.9581 66.9444 31.61C67.548 32.2618 68.4171 32.5877 69.5517 32.5877C70.7347 32.5877 71.7124 32.2377 72.485 31.5375L73.2454 32.805C72.7626 33.2637 72.1711 33.6017 71.471 33.8189C70.795 34.0362 70.0949 34.1449 69.3707 34.1449ZM60.7521 16.6541V15.097H72.0504V16.6541H60.7521ZM84.8857 34.1449C83.0751 34.1449 81.4576 33.7344 80.0332 32.9136C78.633 32.0928 77.5104 30.9581 76.6654 29.5096C75.8446 28.0611 75.4342 26.4074 75.4342 24.5485C75.4342 22.6654 75.8446 21.0117 76.6654 19.5874C77.5104 18.1389 78.633 17.0042 80.0332 16.1834C81.4576 15.3626 83.0751 14.9521 84.8857 14.9521C86.6963 14.9521 88.3138 15.3626 89.7382 16.1834C91.1626 17.0042 92.2852 18.1389 93.106 19.5874C93.9268 21.0117 94.3372 22.6654 94.3372 24.5485C94.3372 26.4074 93.9268 28.0611 93.106 29.5096C92.2852 30.9581 91.1626 32.0928 89.7382 32.9136C88.3138 33.7344 86.6963 34.1449 84.8857 34.1449ZM84.8857 32.5153C86.3342 32.5153 87.6379 32.1894 88.7967 31.5375C89.9555 30.8616 90.8608 29.92 91.5126 28.713C92.1644 27.5059 92.4904 26.1177 92.4904 24.5485C92.4904 22.9551 92.1644 21.567 91.5126 20.384C90.8608 19.177 89.9555 18.2475 88.7967 17.5957C87.6379 16.9197 86.3342 16.5817 84.8857 16.5817C83.4372 16.5817 82.1335 16.9197 80.9747 17.5957C79.8401 18.2475 78.9348 19.177 78.2588 20.384C77.607 21.567 77.281 22.9551 77.281 24.5485C77.281 26.1177 77.607 27.5059 78.2588 28.713C78.9348 29.92 79.8401 30.8616 80.9747 31.5375C82.1335 32.1894 83.4372 32.5153 84.8857 32.5153ZM105.334 34.1449C103.668 34.1449 102.389 33.6862 101.496 32.7688C100.626 31.8514 100.192 30.596 100.192 29.0027V10.9687H102.003V28.8216C102.003 30.0287 102.304 30.9581 102.908 31.61C103.511 32.2618 104.381 32.5877 105.515 32.5877C106.698 32.5877 107.676 32.2377 108.448 31.5375L109.209 32.805C108.726 33.2637 108.135 33.6017 107.434 33.8189C106.759 34.0362 106.058 34.1449 105.334 34.1449ZM96.7155 16.6541V15.097H108.014V16.6541H96.7155ZM121.139 34.1449C119.232 34.1449 117.542 33.7344 116.069 32.9136C114.621 32.0928 113.474 30.9581 112.629 29.5096C111.808 28.0611 111.398 26.4074 111.398 24.5485C111.398 22.6654 111.784 21.0117 112.556 19.5874C113.353 18.1389 114.44 17.0042 115.816 16.1834C117.192 15.3626 118.737 14.9521 120.451 14.9521C122.165 14.9521 123.698 15.3505 125.05 16.1472C126.426 16.9438 127.5 18.0664 128.273 19.5149C129.069 20.9393 129.468 22.593 129.468 24.4761C129.468 24.5485 129.456 24.633 129.432 24.7296C129.432 24.802 129.432 24.8865 129.432 24.983H112.738V23.5708H128.454L127.73 24.2588C127.754 22.7861 127.44 21.4704 126.788 20.3116C126.16 19.1287 125.303 18.2113 124.217 17.5595C123.131 16.8835 121.875 16.5455 120.451 16.5455C119.051 16.5455 117.795 16.8835 116.685 17.5595C115.598 18.2113 114.741 19.1287 114.114 20.3116C113.486 21.4704 113.172 22.7982 113.172 24.295V24.6209C113.172 26.166 113.51 27.5421 114.186 28.7492C114.886 29.9321 115.84 30.8616 117.047 31.5375C118.254 32.1894 119.63 32.5153 121.175 32.5153C122.382 32.5153 123.505 32.298 124.543 31.8635C125.605 31.4289 126.498 30.765 127.223 29.8718L128.273 31.0668C127.452 32.0807 126.414 32.8533 125.158 33.3844C123.927 33.8914 122.587 34.1449 121.139 34.1449ZM144.432 34.1449C142.766 34.1449 141.258 33.7586 139.906 32.986C138.578 32.2135 137.516 31.103 136.719 29.6545C135.946 28.206 135.56 26.504 135.56 24.5485C135.56 22.5447 135.946 20.8307 136.719 19.4063C137.516 17.9819 138.578 16.8835 139.906 16.1109C141.258 15.3384 142.766 14.9521 144.432 14.9521C146.219 14.9521 147.812 15.3626 149.212 16.1834C150.637 16.9801 151.747 18.1026 152.544 19.5511C153.365 20.9755 153.775 22.6413 153.775 24.5485C153.775 26.4316 153.365 28.0973 152.544 29.5458C151.747 30.9943 150.637 32.129 149.212 32.9498C147.812 33.7465 146.219 34.1449 144.432 34.1449ZM134.945 34V7.13021H136.755V21.2169L136.393 24.5123L136.683 27.8076V34H134.945ZM144.324 32.5153C145.772 32.5153 147.076 32.1894 148.235 31.5375C149.393 30.8616 150.299 29.92 150.951 28.713C151.627 27.5059 151.964 26.1177 151.964 24.5485C151.964 22.9551 151.627 21.567 150.951 20.384C150.299 19.177 149.393 18.2475 148.235 17.5957C147.076 16.9197 145.772 16.5817 144.324 16.5817C142.875 16.5817 141.571 16.9197 140.413 17.5957C139.278 18.2475 138.373 19.177 137.697 20.384C137.045 21.567 136.719 22.9551 136.719 24.5485C136.719 26.1177 137.045 27.5059 137.697 28.713C138.373 29.92 139.278 30.8616 140.413 31.5375C141.571 32.1894 142.875 32.5153 144.324 32.5153ZM171.1 34V29.6907L171.027 29.0389V21.9412C171.027 20.1788 170.544 18.839 169.579 17.9216C168.637 17.0042 167.249 16.5455 165.414 16.5455C164.111 16.5455 162.891 16.7748 161.757 17.2335C160.646 17.6681 159.693 18.2354 158.896 18.9355L157.991 17.6319C158.932 16.7869 160.067 16.1351 161.395 15.6764C162.722 15.1936 164.111 14.9521 165.559 14.9521C167.901 14.9521 169.699 15.5436 170.955 16.7266C172.21 17.9095 172.838 19.6719 172.838 22.0136V34H171.1ZM164.292 34.1449C162.891 34.1449 161.672 33.9276 160.634 33.493C159.62 33.0343 158.836 32.3946 158.28 31.5738C157.749 30.7529 157.484 29.8114 157.484 28.7492C157.484 27.7835 157.701 26.9144 158.136 26.1419C158.594 25.3452 159.343 24.7054 160.381 24.2226C161.419 23.7156 162.807 23.4621 164.545 23.4621H171.498V24.8744H164.581C162.626 24.8744 161.25 25.2365 160.453 25.9608C159.681 26.685 159.294 27.5904 159.294 28.6767C159.294 29.8838 159.753 30.8495 160.67 31.5738C161.588 32.298 162.879 32.6601 164.545 32.6601C166.139 32.6601 167.478 32.298 168.565 31.5738C169.675 30.8495 170.496 29.7993 171.027 28.4233L171.534 29.6545C171.027 31.0306 170.158 32.129 168.927 32.9498C167.72 33.7465 166.175 34.1449 164.292 34.1449ZM188.032 41.1701C186.317 41.1701 184.688 40.9045 183.143 40.3734C181.598 39.8423 180.342 39.106 179.377 38.1645L180.354 36.7884C181.296 37.6575 182.419 38.3334 183.722 38.8163C185.05 39.2991 186.474 39.5405 187.995 39.5405C190.53 39.5405 192.389 38.9491 193.572 37.7661C194.779 36.5832 195.383 34.7243 195.383 32.1894V26.9385L195.745 24.1139L195.455 21.2894V15.097H197.193V31.9721C197.193 35.1347 196.421 37.4523 194.876 38.9249C193.355 40.4217 191.073 41.1701 188.032 41.1701ZM187.525 33.312C185.738 33.312 184.133 32.9257 182.708 32.1532C181.308 31.3565 180.185 30.2701 179.34 28.894C178.52 27.4938 178.109 25.9004 178.109 24.1139C178.109 22.3033 178.52 20.71 179.34 19.3339C180.185 17.9578 181.308 16.8835 182.708 16.1109C184.133 15.3384 185.738 14.9521 187.525 14.9521C189.239 14.9521 190.772 15.3263 192.124 16.0747C193.5 16.799 194.586 17.8492 195.383 19.2252C196.179 20.5772 196.578 22.2067 196.578 24.1139C196.578 25.997 196.179 27.6266 195.383 29.0027C194.586 30.3787 193.5 31.441 192.124 32.1894C190.772 32.9378 189.239 33.312 187.525 33.312ZM187.669 31.6824C189.19 31.6824 190.53 31.3685 191.689 30.7409C192.848 30.089 193.753 29.1958 194.405 28.0611C195.081 26.9023 195.419 25.5866 195.419 24.1139C195.419 22.6172 195.081 21.3014 194.405 20.1668C193.753 19.0321 192.848 18.1509 191.689 17.5232C190.53 16.8956 189.19 16.5817 187.669 16.5817C186.197 16.5817 184.869 16.8956 183.686 17.5232C182.527 18.1509 181.61 19.0321 180.934 20.1668C180.282 21.3014 179.956 22.6172 179.956 24.1139C179.956 25.5866 180.282 26.9023 180.934 28.0611C181.61 29.1958 182.527 30.089 183.686 30.7409C184.869 31.3685 186.197 31.6824 187.669 31.6824ZM209.513 34.1449C207.944 34.1449 206.471 33.9155 205.095 33.4568C203.743 32.9981 202.693 32.4187 201.944 31.7186L202.777 30.2701C203.502 30.8978 204.467 31.441 205.674 31.8997C206.881 32.3342 208.185 32.5515 209.585 32.5515C211.565 32.5515 212.989 32.2256 213.858 31.5738C214.727 30.9219 215.162 30.0649 215.162 29.0027C215.162 28.2301 214.933 27.6266 214.474 27.192C214.039 26.7333 213.448 26.3833 212.7 26.1419C211.951 25.9004 211.13 25.7073 210.237 25.5625C209.344 25.3935 208.451 25.2124 207.557 25.0193C206.664 24.8261 205.843 24.5485 205.095 24.1864C204.347 23.8242 203.743 23.3293 203.284 22.7017C202.85 22.0498 202.632 21.1928 202.632 20.1306C202.632 19.1649 202.898 18.2958 203.429 17.5232C203.96 16.7507 204.757 16.1351 205.819 15.6764C206.881 15.1936 208.209 14.9521 209.803 14.9521C210.986 14.9521 212.168 15.1211 213.351 15.4591C214.559 15.7971 215.536 16.2437 216.285 16.799L215.452 18.2475C214.655 17.6439 213.762 17.2094 212.772 16.9438C211.782 16.6783 210.78 16.5455 209.766 16.5455C207.932 16.5455 206.58 16.8835 205.711 17.5595C204.866 18.2354 204.443 19.0804 204.443 20.0943C204.443 20.891 204.66 21.5308 205.095 22.0136C205.554 22.4723 206.157 22.8344 206.906 23.1C207.654 23.3414 208.475 23.5466 209.368 23.7156C210.261 23.8605 211.155 24.0294 212.048 24.2226C212.941 24.4157 213.762 24.6933 214.51 25.0555C215.259 25.3935 215.85 25.8763 216.285 26.504C216.743 27.1075 216.973 27.9283 216.973 28.9664C216.973 30.0045 216.683 30.9099 216.104 31.6824C215.548 32.4549 214.715 33.0585 213.605 33.493C212.494 33.9276 211.13 34.1449 209.513 34.1449ZM231.135 14.9521C232.68 14.9521 234.02 15.2539 235.155 15.8575C236.314 16.4369 237.207 17.3301 237.835 18.5372C238.487 19.7201 238.812 21.1928 238.812 22.9551V34H237.002V23.1C237.002 20.9755 236.459 19.358 235.372 18.2475C234.31 17.137 232.813 16.5817 230.882 16.5817C229.409 16.5817 228.13 16.8835 227.043 17.487C225.957 18.0906 225.124 18.9355 224.545 20.0219C223.989 21.1083 223.712 22.4119 223.712 23.9329V34H221.901V7.13021H223.712V20.3478L223.386 19.7684C223.965 18.2716 224.919 17.1008 226.247 16.2558C227.574 15.3867 229.204 14.9521 231.135 14.9521ZM253.53 34.1449C251.719 34.1449 250.102 33.7344 248.677 32.9136C247.277 32.0928 246.154 30.9581 245.309 29.5096C244.489 28.0611 244.078 26.4074 244.078 24.5485C244.078 22.6654 244.489 21.0117 245.309 19.5874C246.154 18.1389 247.277 17.0042 248.677 16.1834C250.102 15.3626 251.719 14.9521 253.53 14.9521C255.34 14.9521 256.958 15.3626 258.382 16.1834C259.807 17.0042 260.929 18.1389 261.75 19.5874C262.571 21.0117 262.981 22.6654 262.981 24.5485C262.981 26.4074 262.571 28.0611 261.75 29.5096C260.929 30.9581 259.807 32.0928 258.382 32.9136C256.958 33.7344 255.34 34.1449 253.53 34.1449ZM253.53 32.5153C254.978 32.5153 256.282 32.1894 257.441 31.5375C258.599 30.8616 259.505 29.92 260.157 28.713C260.808 27.5059 261.134 26.1177 261.134 24.5485C261.134 22.9551 260.808 21.567 260.157 20.384C259.505 19.177 258.599 18.2475 257.441 17.5957C256.282 16.9197 254.978 16.5817 253.53 16.5817C252.081 16.5817 250.778 16.9197 249.619 17.5957C248.484 18.2475 247.579 19.177 246.903 20.384C246.251 21.567 245.925 22.9551 245.925 24.5485C245.925 26.1177 246.251 27.5059 246.903 28.713C247.579 29.92 248.484 30.8616 249.619 31.5375C250.778 32.1894 252.081 32.5153 253.53 32.5153ZM277.962 34.1449C276.296 34.1449 274.787 33.7586 273.435 32.986C272.107 32.2135 271.045 31.1151 270.248 29.6907C269.476 28.2422 269.089 26.5281 269.089 24.5485C269.089 22.5689 269.476 20.8669 270.248 19.4425C271.045 17.994 272.107 16.8835 273.435 16.1109C274.787 15.3384 276.296 14.9521 277.962 14.9521C279.748 14.9521 281.341 15.3626 282.742 16.1834C284.166 16.9801 285.276 18.1026 286.073 19.5511C286.894 20.9997 287.304 22.6654 287.304 24.5485C287.304 26.4316 286.894 28.0973 286.073 29.5458C285.276 30.9943 284.166 32.129 282.742 32.9498C281.341 33.7465 279.748 34.1449 277.962 34.1449ZM268.474 41.0253V15.097H270.212V21.2894L269.922 24.5847L270.284 27.8801V41.0253H268.474ZM277.853 32.5153C279.301 32.5153 280.605 32.1894 281.764 31.5375C282.923 30.8616 283.828 29.92 284.48 28.713C285.156 27.5059 285.494 26.1177 285.494 24.5485C285.494 22.9551 285.156 21.567 284.48 20.384C283.828 19.177 282.923 18.2475 281.764 17.5957C280.605 16.9197 279.301 16.5817 277.853 16.5817C276.404 16.5817 275.101 16.9197 273.942 17.5957C272.807 18.2475 271.902 19.177 271.226 20.384C270.574 21.567 270.248 22.9551 270.248 24.5485C270.248 26.1177 270.574 27.5059 271.226 28.713C271.902 29.92 272.807 30.8616 273.942 31.5375C275.101 32.1894 276.404 32.5153 277.853 32.5153Z" fill="#001515"/>
<g clip-path="url(#clip0_27_4200)">
<path d="M295.274 8.43808C295.274 10.3963 296.052 12.2742 297.436 13.6589C298.821 15.0435 300.699 15.8214 302.657 15.8214C304.615 15.8214 306.493 15.0435 307.878 13.6589C309.263 12.2742 310.04 10.3963 310.04 8.43808C310.04 6.4799 309.263 4.60192 307.878 3.21728C306.493 1.83264 304.615 1.05476 302.657 1.05476C300.699 1.05476 298.821 1.83264 297.436 3.21728C296.052 4.60192 295.274 6.4799 295.274 8.43808ZM311.095 8.43808C311.095 10.676 310.206 12.8222 308.624 14.4047C307.041 15.9871 304.895 16.8762 302.657 16.8762C300.419 16.8762 298.273 15.9871 296.69 14.4047C295.108 12.8222 294.219 10.676 294.219 8.43808C294.219 6.20016 295.108 4.0539 296.69 2.47146C298.273 0.889009 300.419 0 302.657 0C304.895 0 307.041 0.889009 308.624 2.47146C310.206 4.0539 311.095 6.20016 311.095 8.43808ZM300.02 4.22115H303.301C305.104 4.22115 306.192 5.24743 306.192 6.81586C306.192 8.01617 305.488 8.86209 304.615 9.17852L306.349 12.6571H304.746L303.206 9.41267H301.429V12.6571H300.02V4.22115ZM301.428 5.37083V8.2999H303.062C304.112 8.2999 304.721 7.81155 304.721 6.86543C304.721 5.90243 304.093 5.37083 303.1 5.37083H301.428Z" fill="#001515"/>
</g>
<defs>
<clipPath id="clip0_27_4200">
<rect width="16.8762" height="16.8762" fill="white" transform="translate(294.219)"/>
</clipPath>
</defs>
</svg>
