<svg width="31" height="31" viewBox="0 0 31 31" fill="none" xmlns="http://www.w3.org/2000/svg">
<path d="M27.6309 25.8236L22.9091 21.1399C24.742 18.8546 25.6296 15.954 25.3894 13.0343C25.1492 10.1147 23.7996 7.39803 21.6179 5.44295C19.4363 3.48786 16.5885 2.44296 13.6601 2.52309C10.7317 2.60322 7.94529 3.8023 5.87382 5.87376C3.80236 7.94523 2.60328 10.7316 2.52315 13.66C2.44302 16.5884 3.48792 19.4362 5.44301 21.6179C7.39809 23.7995 10.1148 25.1492 13.0344 25.3893C15.954 25.6295 18.8547 24.7419 21.14 22.909L25.8236 27.5927C25.942 27.712 26.0827 27.8066 26.2378 27.8713C26.3929 27.9359 26.5593 27.9691 26.7273 27.9691C26.8953 27.9691 27.0616 27.9359 27.2167 27.8713C27.3718 27.8066 27.5126 27.712 27.6309 27.5927C27.8603 27.3554 27.9885 27.0382 27.9885 26.7081C27.9885 26.3781 27.8603 26.0609 27.6309 25.8236ZM14 22.909C12.238 22.909 10.5155 22.3865 9.05038 21.4076C7.58529 20.4286 6.44339 19.0372 5.76908 17.4093C5.09477 15.7814 4.91834 13.9901 5.2621 12.2619C5.60586 10.5337 6.45437 8.94623 7.70033 7.70027C8.94629 6.45431 10.5337 5.6058 12.2619 5.26204C13.9901 4.91828 15.7814 5.09471 17.4094 5.76902C19.0373 6.44333 20.4287 7.58523 21.4076 9.05032C22.3866 10.5154 22.9091 12.2379 22.9091 13.9999C22.9091 16.3628 21.9705 18.6288 20.2997 20.2996C18.6289 21.9704 16.3628 22.909 14 22.909Z" fill="#E0E7E7"/>
</svg>
