<svg width="29" height="28" viewBox="0 0 29 28" fill="none" xmlns="http://www.w3.org/2000/svg">
<path d="M17.2089 11.6667V19.8333M12.5422 11.6667V19.8333M7.87557 7V20.7667C7.87557 22.0735 7.87557 22.7264 8.12989 23.2255C8.35359 23.6646 8.71029 24.0222 9.14933 24.2459C9.64797 24.5 10.3011 24.5 11.6053 24.5H18.1458C19.4501 24.5 20.1022 24.5 20.6009 24.2459C21.0399 24.0222 21.3978 23.6646 21.6215 23.2255C21.8756 22.7269 21.8756 22.0745 21.8756 20.7703V7M7.87557 7H10.2089M7.87557 7H5.54224M10.2089 7H19.5422M10.2089 7C10.2089 5.9128 10.2089 5.36947 10.3865 4.94067C10.6233 4.36894 11.0773 3.91443 11.649 3.67761C12.0778 3.5 12.6217 3.5 13.7089 3.5H16.0422C17.1294 3.5 17.673 3.5 18.1018 3.67761C18.6736 3.91443 19.1277 4.36894 19.3645 4.94067C19.5421 5.36947 19.5422 5.91281 19.5422 7M19.5422 7H21.8756M21.8756 7H24.2089" stroke="#FAFFFF" stroke-width="2.33333" stroke-linecap="round" stroke-linejoin="round"/>
</svg>
