<svg width="16" height="16" viewBox="0 0 16 16" fill="none" xmlns="http://www.w3.org/2000/svg">
<path d="M9.5 12.5H14.75M1.25 12.5H2.75M2.75 12.5C2.75 13.5355 3.58947 14.375 4.625 14.375C5.66053 14.375 6.5 13.5355 6.5 12.5C6.5 11.4645 5.66053 10.625 4.625 10.625C3.58947 10.625 2.75 11.4645 2.75 12.5ZM14 8H14.75M1.25 8H6.5M8.75 3.5H14.75M8.75 3.5C8.75 2.46447 7.91053 1.625 6.875 1.625C5.83947 1.625 5 2.46447 5 3.5C5 4.53553 5.83947 5.375 6.875 5.375C7.91053 5.375 8.75 4.53553 8.75 3.5ZM1.25 3.5H2M11.375 9.875C10.3395 9.875 9.5 9.03553 9.5 8C9.5 6.96447 10.3395 6.125 11.375 6.125C12.4105 6.125 13.25 6.96447 13.25 8C13.25 9.03553 12.4105 9.875 11.375 9.875Z" stroke="#EEFFFF" stroke-width="1.5" stroke-linecap="round" stroke-linejoin="round"/>
</svg>
