<svg width="21" height="20" viewBox="0 0 21 20" fill="none" xmlns="http://www.w3.org/2000/svg">
<path d="M12.8182 15.5454H19.8182M1.81818 15.5454H3.81818M3.81818 15.5454C3.81818 16.9261 4.93746 18.0454 6.31818 18.0454C7.69889 18.0454 8.81818 16.9261 8.81818 15.5454C8.81818 14.1647 7.69889 13.0454 6.31818 13.0454C4.93746 13.0454 3.81818 14.1647 3.81818 15.5454ZM18.8182 9.54541H19.8182M1.81818 9.54541H8.81818M11.8182 3.54541H19.8182M11.8182 3.54541C11.8182 2.1647 10.6989 1.04541 9.31818 1.04541C7.93746 1.04541 6.81818 2.1647 6.81818 3.54541C6.81818 4.92612 7.93746 6.04541 9.31818 6.04541C10.6989 6.04541 11.8182 4.92612 11.8182 3.54541ZM1.81818 3.54541H2.81818M15.3182 12.0454C13.9375 12.0454 12.8182 10.9261 12.8182 9.54541C12.8182 8.1647 13.9375 7.04541 15.3182 7.04541C16.6989 7.04541 17.8182 8.1647 17.8182 9.54541C17.8182 10.9261 16.6989 12.0454 15.3182 12.0454Z" stroke="#FAFFFF" stroke-width="2" stroke-linecap="round" stroke-linejoin="round"/>
</svg>
