<svg width="24" height="25" viewBox="0 0 24 25" fill="none" xmlns="http://www.w3.org/2000/svg">
<path d="M11.9907 9.24515V13.1921M13.2203 4.32014L14.425 5.34684C14.7286 5.6055 15.1054 5.76188 15.503 5.7936L17.0808 5.91935C18.0085 5.99338 18.7453 6.72975 18.8193 7.65742L18.9448 9.23552C18.9765 9.63304 19.1334 10.0105 19.3921 10.314L20.4183 11.5184C21.0219 12.2267 21.022 13.2686 20.4184 13.9769L19.3922 15.1815C19.1335 15.4851 18.9768 15.8626 18.9451 16.2601L18.8188 17.838C18.7448 18.7656 18.0091 19.5025 17.0815 19.5765L15.5031 19.7024C15.1055 19.7342 14.7283 19.8901 14.4248 20.1488L13.2203 21.1755C12.512 21.7791 11.4694 21.7793 10.7611 21.1756L9.55662 20.1489C9.25309 19.8902 8.87586 19.734 8.47834 19.7023L6.89994 19.5765C5.97228 19.5025 5.23658 18.7658 5.16255 17.8382L5.03632 16.2602C5.0046 15.8627 4.84786 15.4855 4.5892 15.182L3.56296 13.977C2.95935 13.2687 2.95906 12.2271 3.56267 11.5188L4.58984 10.3138C4.84851 10.0103 5.00373 9.63304 5.03545 9.23552L5.16168 7.65761C5.23571 6.72994 5.97354 5.99328 6.9012 5.91925L8.47785 5.7935C8.87538 5.76178 9.25279 5.60553 9.55631 5.34687L10.7612 4.32014C11.4695 3.71653 12.512 3.71653 13.2203 4.32014ZM12.0398 16.1523V16.251L11.9416 16.2506V16.1523H12.0398Z" stroke="#939898" stroke-width="1.97347" stroke-linecap="round" stroke-linejoin="round"/>
</svg>
